<?xml version="1.0" encoding="utf-8"?>
<!-- Generator: Adobe Illustrator 19.0.0, SVG Export Plug-In . SVG Version: 6.00 Build 0)  -->
<svg version="1.1" id="图层_1" xmlns="http://www.w3.org/2000/svg" xmlns:xlink="http://www.w3.org/1999/xlink" x="0px" y="0px"
	 viewBox="115.7 90 20 20" style="enable-background:new 115.7 90 20 20;" xml:space="preserve">
<style type="text/css">
	.st0{fill:#5D5D5D;}
</style>
<g>
	<path class="st0" d="M135.6,90.7h-19.9v18.4c0,0,0,0.1,0.1,0.1h19.9V90.9C135.7,90.8,135.6,90.7,135.6,90.7z M120.6,93.5
		c2.5-1.6,5.2,1,3.5,3.5c-0.1,0.1-0.2,0.3-0.3,0.3c-2.5,1.7-5.3-1-3.5-3.5C120.3,93.7,120.4,93.6,120.6,93.5z M118.4,107
		c-0.2,0-0.3-0.1-0.5-0.2c-0.3-0.3-0.4-0.7-0.1-1.1l3.5-5.2c0.3-0.3,0.7-0.3,1-0.1l3.1,2.3l5.5-6.2c0.3-0.3,1.6-1.9,2.4-0.1
		c0,0,0,2.3,0,4.6v6C133.3,107,118.4,107,118.4,107L118.4,107z"/>
</g>
</svg>
