<?xml version="1.0" encoding="utf-8"?>
<!-- Generator: Adobe Illustrator 19.0.0, SVG Export Plug-In . SVG Version: 6.00 Build 0)  -->
<svg version="1.1" id="图层_1" xmlns="http://www.w3.org/2000/svg" xmlns:xlink="http://www.w3.org/1999/xlink" x="0px" y="0px"
	 viewBox="0 0 20 20" style="enable-background:new 0 0 20 20;" xml:space="preserve">
<style type="text/css">
	.st0{fill:#FFFFFF;}
	.st1{fill:#303E55;}
</style>
<circle class="st0" cx="10" cy="10" r="9.4"/>
<g>
	<path class="st1" d="M10,0C4.5,0,0,4.5,0,10c0,2.2,0.7,4.2,1.9,5.8c0.5,0.6,1,1.2,1.6,1.7C5.2,19,7.3,19.8,9.6,20
		c0.1,0,0.3,0,0.4,0l0,0c0.8,0,1.6-0.1,2.3-0.3l0,0c2.9-0.6,5.4-2.6,6.7-5.3c0.4-0.8,0.7-1.7,0.8-2.6c0.1-0.6,0.2-1.2,0.2-1.8
		C20,4.5,15.5,0,10,0z M12.8,17.8c-0.6,0.2-1.2,0.4-1.9,0.4c-0.2,0-0.3,0-0.5,0s-0.3,0-0.4,0c-0.6,0-1.2-0.1-1.7-0.2
		c-1.7-0.4-3.2-1.2-4.3-2.5c-0.4-0.5-0.8-1-1.1-1.6c-0.7-1.2-1-2.5-1-4c0-4.5,3.7-8.2,8.2-8.2s8.2,3.7,8.2,8.2V10
		c0,0.7-0.1,1.5-0.3,2.1C17.1,14.8,15.3,16.8,12.8,17.8L12.8,17.8z"/>
</g>
<g>
	<rect x="10.6" y="5.9" class="st1" width="2.3" height="2.3"/>
	<rect x="10.6" y="9.4" class="st1" width="2.3" height="2.3"/>
	<rect x="7.1" y="5.9" class="st1" width="2.3" height="2.3"/>
	<rect x="7.1" y="9.4" class="st1" width="2.3" height="2.3"/>
	<rect x="3.7" y="9.4" class="st1" width="2.3" height="2.3"/>
	<polygon class="st1" points="6,8.2 3.7,8.2 3.7,5.9 6,5.9 6,8.2 	"/>
	<polygon class="st1" points="13.3,13.3 13.3,15.4 6,15.4 6,13.3 13.3,13.3 	"/>
	<rect x="14" y="9.4" class="st1" width="2.3" height="2.3"/>
	<rect x="14" y="5.9" class="st1" width="2.3" height="2.3"/>
</g>
</svg>
