<?xml version="1.0" encoding="utf-8"?>
<!-- Generator: Adobe Illustrator 19.0.0, SVG Export Plug-In . SVG Version: 6.00 Build 0)  -->
<svg version="1.1" id="图层_1" xmlns="http://www.w3.org/2000/svg" xmlns:xlink="http://www.w3.org/1999/xlink" x="0px" y="0px"
	 viewBox="115.7 90 20 20" style="enable-background:new 115.7 90 20 20;" xml:space="preserve">
<style type="text/css">
	.st0{fill:#5D5D5D;}
</style>
<path class="st0" d="M122.5,100c0,1.8,1.4,3.2,3.2,3.2s3.2-1.4,3.2-3.2s-1.4-3.2-3.2-3.2S122.5,98.2,122.5,100z"/>
<path class="st0" d="M122.7,91.3l-1.8,2.1h-3.2c-1.1,0-2,0.8-2,1.9v11.4c0,1.1,0.9,2,2,2h16c1.1,0,2-0.9,2-2V95.3
	c0-1.1-0.9-1.9-2-1.9h-3.2l-1.8-2.1H122.7z M125.7,105.8c-2.8,0-5-2.2-5-5c0-2.8,2.2-5,5-5s5,2.2,5,5
	C130.7,103.6,128.5,105.8,125.7,105.8z"/>
</svg>
