<?xml version="1.0" encoding="utf-8"?>
<!-- Generator: Adobe Illustrator 19.0.0, SVG Export Plug-In . SVG Version: 6.00 Build 0)  -->
<svg version="1.1" id="图层_1" xmlns="http://www.w3.org/2000/svg" xmlns:xlink="http://www.w3.org/1999/xlink" x="0px" y="0px"
	 viewBox="-89 91 20 20" style="enable-background:new -89 91 20 20;" xml:space="preserve">
<style type="text/css">
	.st0{fill:#FFFFFF;}
	.st1{fill:#303E55;}
</style>
<g>
	<circle class="st0" cx="-79" cy="101.1" r="9.4"/>
	<g>
		<path class="st1" d="M-79,91.1c-5.5,0-10,4.5-10,10c0,2.2,0.7,4.2,1.9,5.8c0.5,0.6,1,1.2,1.6,1.7c1.7,1.4,3.8,2.3,6.1,2.4
			c0.1,0,0.3,0,0.4,0l0,0c0.8,0,1.6-0.1,2.3-0.3l0,0c2.9-0.6,5.4-2.6,6.7-5.3c0.4-0.8,0.7-1.7,0.8-2.6c0.1-0.6,0.2-1.2,0.2-1.8
			C-69,95.6-73.5,91.1-79,91.1z M-76.2,108.8c-0.6,0.2-1.2,0.4-1.9,0.4c-0.2,0-0.3,0-0.5,0s-0.3,0-0.4,0c-0.6,0-1.2-0.1-1.7-0.2
			c-1.7-0.4-3.2-1.2-4.3-2.5c-0.4-0.5-0.8-1-1.1-1.6c-0.7-1.2-1-2.5-1-4c0-4.5,3.7-8.2,8.2-8.2s8.2,3.7,8.2,8.2v0.1
			c0,0.7-0.1,1.5-0.3,2.1C-71.9,105.8-73.7,107.8-76.2,108.8L-76.2,108.8z"/>
	</g>
	<g>
		<circle class="st1" cx="-82.9" cy="98.3" r="1.5"/>
		<circle class="st1" cx="-74.9" cy="98.3" r="1.5"/>
	</g>
	<path class="st1" d="M-79,107.3c-1.3,0-2.5-0.5-3.5-1.5c-0.9-0.9-1.4-2.1-1.4-3.4c0-0.3,0.2-0.5,0.5-0.5h8.6c0.3,0,0.5,0.2,0.5,0.5
		c0,1.3-0.5,2.5-1.4,3.4C-76.5,106.6-77.7,107.3-79,107.3z"/>
</g>
</svg>
