<?xml version="1.0" encoding="utf-8"?>
<!-- Generator: Adobe Illustrator 19.0.0, SVG Export Plug-In . SVG Version: 6.00 Build 0)  -->
<svg version="1.1" id="图层_1" xmlns="http://www.w3.org/2000/svg" xmlns:xlink="http://www.w3.org/1999/xlink" x="0px" y="0px"
	 viewBox="0 0 20 20" style="enable-background:new 0 0 20 20;" xml:space="preserve">
<style type="text/css">
	.st0{fill:#A0A0A0;}
	.st1{fill:#FFFFFF;}
</style>
<circle class="st0" cx="10" cy="10" r="10"/>
<path class="st1" d="M10,16.6c-0.6,0-1.1-0.5-1.1-1.1s0.5-1.1,1.1-1.1s1.2,0.5,1.2,1.1S10.7,16.6,10,16.6z M11.9,10.1L11.9,10.1
	c-0.7,0.4-0.9,0.5-0.9,1V12c0,0.5-0.4,0.9-1,0.9c-0.5,0-1-0.4-1-0.9v-0.9c0-1.6,1.1-2.2,1.9-2.6C11.7,8.1,12,7.9,12,7.1
	c0-1.1-0.9-1.9-2-1.9S8,6.1,8,7.1C8,7.6,7.6,8,7,8C6.5,8,6,7.6,6,7.1C6,5,7.7,3.3,9.9,3.3c2.1,0,3.9,1.7,3.9,3.8
	C13.9,9,12.7,9.7,11.9,10.1L11.9,10.1z"/>
</svg>
