<?xml version="1.0" encoding="utf-8"?>
<!-- Generator: Adobe Illustrator 19.0.0, SVG Export Plug-In . SVG Version: 6.00 Build 0)  -->
<svg version="1.1" id="图层_1" xmlns="http://www.w3.org/2000/svg" xmlns:xlink="http://www.w3.org/1999/xlink" x="0px" y="0px"
	 viewBox="-14 16 20 20" style="enable-background:new -14 16 20 20;" xml:space="preserve">
<style type="text/css">
	.st0{fill:#FFFFFF;}
	.st1{fill:#303E55;}
</style>
<circle class="st0" cx="-4" cy="26" r="9.4"/>
<g>
	<path class="st1" d="M-4,16c-5.5,0-10,4.5-10,10c0,2.2,0.7,4.2,1.9,5.8c0.5,0.6,1,1.2,1.6,1.7c1.7,1.4,3.8,2.3,6.1,2.4
		c0.1,0,0.3,0,0.4,0l0,0c0.8,0,1.6-0.1,2.3-0.3l0,0C1.2,35,3.7,33,5,30.3c0.4-0.8,0.7-1.7,0.8-2.6C5.9,27.1,6,26.5,6,25.9
		C6,20.5,1.5,16-4,16z M-1.2,33.8c-0.6,0.2-1.2,0.4-1.9,0.4c-0.2,0-0.3,0-0.5,0s-0.3,0-0.4,0c-0.6,0-1.2-0.1-1.7-0.2
		c-1.7-0.4-3.2-1.2-4.3-2.5c-0.4-0.5-0.8-1-1.1-1.6c-0.7-1.2-1-2.5-1-4c0-4.5,3.7-8.2,8.2-8.2s8.2,3.7,8.2,8.2V26
		c0,0.7-0.1,1.5-0.3,2.1C3.1,30.8,1.3,32.8-1.2,33.8L-1.2,33.8z"/>
</g>
<path class="st1" d="M0.8,24.8h-3.6v-3.6c0-0.6-0.5-1.2-1.2-1.2s-1.2,0.5-1.2,1.2v3.6h-3.6c-0.6,0-1.2,0.5-1.2,1.2s0.5,1.2,1.2,1.2
	h3.6v3.6c0,0.6,0.5,1.2,1.2,1.2s1.2-0.5,1.2-1.2v-3.6h3.6C1.5,27.2,2,26.6,2,26S1.5,24.8,0.8,24.8z"/>
</svg>
