<?xml version="1.0" encoding="utf-8"?>
<!-- Generator: Adobe Illustrator 19.0.0, SVG Export Plug-In . SVG Version: 6.00 Build 0)  -->
<svg version="1.1" id="图层_1" xmlns="http://www.w3.org/2000/svg" xmlns:xlink="http://www.w3.org/1999/xlink" x="0px" y="0px"
	 viewBox="0 0 20 20" style="enable-background:new 0 0 20 20;" xml:space="preserve">
<style type="text/css">
	.st0{fill:#FFFFFF;}
	.st1{fill:#303E55;}
</style>
<circle class="st0" cx="10" cy="10" r="9.4"/>
<g>
	<path class="st1" d="M10,0C4.5,0,0,4.5,0,10c0,2.2,0.7,4.2,1.9,5.8c0.5,0.6,1,1.2,1.6,1.7C5.2,19,7.3,19.8,9.6,20
		c0.1,0,0.3,0,0.4,0l0,0c0.8,0,1.6-0.1,2.3-0.3l0,0c2.9-0.6,5.4-2.6,6.7-5.3c0.4-0.8,0.7-1.7,0.8-2.6c0.1-0.6,0.2-1.2,0.2-1.8
		C20,4.5,15.5,0,10,0z M12.8,17.8c-0.6,0.2-1.2,0.4-1.9,0.4c-0.2,0-0.3,0-0.5,0s-0.3,0-0.4,0c-0.6,0-1.2-0.1-1.7-0.2
		c-1.7-0.4-3.2-1.2-4.3-2.5c-0.4-0.5-0.8-1-1.1-1.6c-0.7-1.2-1-2.5-1-4c0-4.5,3.7-8.2,8.2-8.2s8.2,3.7,8.2,8.2V10
		c0,0.7-0.1,1.5-0.3,2.1C17.1,14.8,15.3,16.8,12.8,17.8L12.8,17.8z"/>
</g>
<path class="st1" d="M10.9,4.1L10.9,4.1c-0.3,0.3-0.3,0.8,0,1c1.3,1.3,2,3,2,5c0,1.9-0.8,3.6-2,4.9c-0.3,0.3-0.3,0.7,0,1
	c0.3,0.3,0.8,0.3,1.1,0c1.5-1.5,2.4-3.6,2.4-6c0-2.3-0.9-4.4-2.5-6C11.6,3.7,11.2,3.7,10.9,4.1L10.9,4.1z M9.6,6.6
	c-0.2-0.3-0.7-0.4-1-0.1l0,0C8.3,6.7,8.3,7.1,8.5,7.4C9,8.2,9.4,9.1,9.4,10.1c0,0.9-0.3,1.8-0.8,2.5c-0.2,0.3-0.1,0.7,0.1,0.9
	c0.3,0.3,0.8,0.2,1-0.1c0.6-1,1-2.1,1-3.3C10.8,8.8,10.3,7.5,9.6,6.6z M7.4,9.2C7.3,8.9,6.9,8.7,6.6,8.7C6.3,8.7,6,8.9,5.8,9.2
	c-0.2,0.3-0.2,0.6-0.2,0.9c-0.1,0.3,0,0.6,0.2,0.9c0.2,0.3,0.5,0.4,0.8,0.4c0.3,0,0.6-0.2,0.8-0.4c0.2-0.3,0.2-0.6,0.2-0.9
	C7.7,9.8,7.6,9.4,7.4,9.2z"/>
</svg>
