<?xml version="1.0" encoding="utf-8"?>
<!-- Generator: Adobe Illustrator 19.0.0, SVG Export Plug-In . SVG Version: 6.00 Build 0)  -->
<svg version="1.1" id="图层_1" xmlns="http://www.w3.org/2000/svg" xmlns:xlink="http://www.w3.org/1999/xlink" x="0px" y="0px"
	 viewBox="213.6 0 20 20" style="enable-background:new 213.6 0 20 20;" xml:space="preserve">
<style type="text/css">
	.st0{fill:#5D5D5D;}
</style>
<g>
	<path class="st0" d="M215,15.7c-0.9,0-1.4-0.6-1.4-1.4V5.7c0-0.9,0.6-1.4,1.4-1.4s1.4,0.6,1.4,1.4v8.6
		C216.5,15.1,215.9,15.7,215,15.7z M215,5v0.7C215,5.7,215,5,215,5z"/>
	<path class="st0" d="M220.7,17.1c-0.9,0-1.4-0.6-1.4-1.4V4.3c0-0.9,0.6-1.4,1.4-1.4c0.9,0,1.4,0.6,1.4,1.4v11.4
		C222.2,16.6,221.6,17.1,220.7,17.1z M220.7,3.6v0.7V3.6z"/>
	<path class="st0" d="M226.5,18.6c-0.9,0-1.4-0.6-1.4-1.4V2.9c0-0.9,0.6-1.4,1.4-1.4c0.9,0,1.4,0.6,1.4,1.4v14.3
		C227.9,18,227.3,18.6,226.5,18.6L226.5,18.6z M226.5,2.1v0.7V2.1z"/>
	<path class="st0" d="M232.2,14.3c-0.9,0-1.4-0.6-1.4-1.4V7.1c0-0.9,0.6-1.4,1.4-1.4s1.4,0.6,1.4,1.4v5.7
		C233.6,13.7,233,14.3,232.2,14.3z M232.2,6.4v0.7C232.2,7.1,232.2,6.4,232.2,6.4z"/>
</g>
</svg>
